HIERARCHY
ROOT Hips
{
	OFFSET 0.000000 0.000000 0.000000
	CHANNELS 6 Xposition Yposition Zposition Zrotation Yrotation Xrotation 
	JOINT LHipJoint
	{
		OFFSET 0.000000 0.000000 0.000000
		CHANNELS 3 Zrotation Yrotation Xrotation
		JOINT LeftUpLeg
		{
			OFFSET 1.363060 -1.794630 0.839290
			CHANNELS 3 Zrotation Yrotation Xrotation
			JOINT LeftLeg
			{
				OFFSET 2.448110 -6.726130 0.000000
				CHANNELS 3 Zrotation Yrotation Xrotation
				JOINT LeftFoot
				{
					OFFSET 2.562200 -7.039590 0.000000
					CHANNELS 3 Zrotation Yrotation Xrotation
					JOINT LeftToeBase
					{
						OFFSET 0.157640 -0.433110 2.322550
						CHANNELS 3 Zrotation Yrotation Xrotation
						End Site
						{
							OFFSET 0.000000 0.000000 0.000000
						}
					}
				}
			}
		}
	}
	JOINT RHipJoint
	{
		OFFSET 0.000000 0.000000 0.000000
		CHANNELS 3 Zrotation Yrotation Xrotation
		JOINT RightUpLeg
		{
			OFFSET -1.305520 -1.794630 0.839290
			CHANNELS 3 Zrotation Yrotation Xrotation
			JOINT RightLeg
			{
				OFFSET -2.542530 -6.985550 0.000000
				CHANNELS 3 Zrotation Yrotation Xrotation
				JOINT RightFoot
				{
					OFFSET -2.568260 -7.056230 0.000000
					CHANNELS 3 Zrotation Yrotation Xrotation
					JOINT RightToeBase
					{
						OFFSET -0.164730 -0.452590 2.363150
						CHANNELS 3 Zrotation Yrotation Xrotation
						End Site
						{
							OFFSET 0.000000 0.000000 0.000000
						}
					}
				}
			}
		}
	}
	JOINT LowerBack
	{
		OFFSET 0.000000 0.000000 0.000000
		CHANNELS 3 Zrotation Yrotation Xrotation
		JOINT Spine
		{
			OFFSET 0.028270 2.035590 -0.193380
			CHANNELS 3 Zrotation Yrotation Xrotation
			JOINT Spine1
			{
				OFFSET 0.056720 2.048850 -0.042750
				CHANNELS 3 Zrotation Yrotation Xrotation
				JOINT Neck
				{
					OFFSET 0.000000 0.000000 0.000000
					CHANNELS 3 Zrotation Yrotation Xrotation
					JOINT Neck1
					{
						OFFSET -0.054170 1.746240 0.172020
						CHANNELS 3 Zrotation Yrotation Xrotation
						JOINT Head
						{
							OFFSET 0.104070 1.761360 -0.123970
							CHANNELS 3 Zrotation Yrotation Xrotation
							End Site
							{
								OFFSET 0.000000 0.000000 0.000000
							}
						}
					}
				}
				JOINT LeftShoulder
				{
					OFFSET 0.000000 0.000000 0.000000
					CHANNELS 3 Zrotation Yrotation Xrotation
					JOINT LeftArm
					{
						OFFSET 3.362410 1.200890 -0.311210
						CHANNELS 3 Zrotation Yrotation Xrotation
						JOINT LeftForeArm
						{
							OFFSET 4.983000 -0.000000 -0.000000
							CHANNELS 3 Zrotation Yrotation Xrotation
							JOINT LeftHand
							{
								OFFSET 3.483560 -0.000000 -0.000000
								CHANNELS 3 Zrotation Yrotation Xrotation
								JOINT LeftFingerBase
								{
									OFFSET 0.000000 0.000000 0.000000
									CHANNELS 3 Zrotation Yrotation Xrotation
									JOINT LeftHandIndex1
									{
										OFFSET 0.715260 -0.000000 -0.000000
										CHANNELS 3 Zrotation Yrotation Xrotation
										End Site
										{
											OFFSET 0.000000 0.000000 0.000000
										}
									}
								}
								JOINT LThumb
								{
									OFFSET 0.000000 0.000000 0.000000
									CHANNELS 3 Zrotation Yrotation Xrotation
									End Site
									{
										OFFSET 0.000000 0.000000 0.000000
									}
								}
							}
						}
					}
				}
				JOINT RightShoulder
				{
					OFFSET 0.000000 0.000000 0.000000
					CHANNELS 3 Zrotation Yrotation Xrotation
					JOINT RightArm
					{
						OFFSET -3.136600 1.374050 -0.404650
						CHANNELS 3 Zrotation Yrotation Xrotation
						JOINT RightForeArm
						{
							OFFSET -5.241900 -0.000000 -0.000000
							CHANNELS 3 Zrotation Yrotation Xrotation
							JOINT RightHand
							{
								OFFSET -3.444170 -0.000000 -0.000000
								CHANNELS 3 Zrotation Yrotation Xrotation
								JOINT RightFingerBase
								{
									OFFSET 0.000000 0.000000 0.000000
									CHANNELS 3 Zrotation Yrotation Xrotation
									JOINT RightHandIndex1
									{
										OFFSET -0.622530 -0.000000 -0.000000
										CHANNELS 3 Zrotation Yrotation Xrotation
										End Site
										{
											OFFSET 0.000000 0.000000 0.000000
										}
									}
								}
								JOINT RThumb
								{
									OFFSET 0.000000 0.000000 0.000000
									CHANNELS 3 Zrotation Yrotation Xrotation
									End Site
									{
										OFFSET 0.000000 0.000000 0.000000
									}
								}
							}
						}
					}
				}
			}
		}
	}
}
MOTION
Frames: 8
Frame Time: 0.033333
0.007733 17.433512 6.270420 85.328668 -21.782934 -36.297481 -87.067029 -46.944978 49.572536 -3.347445 3.230538 -52.716939 -45.370551 63.135847 -47.033014 19.653508 4.683871 1.597596 0.101540 -0.008001 -33.361823 32.886990 -6.524927 -100.257449 68.787676 -58.164344 -115.058904 112.814078 -35.722304 -88.234767 -11.155457 -24.539874 2.447678 -1.594122 0.163394 -43.180463 -94.303863 65.815031 -3.211418 -173.525993 69.653923 -171.452791 -156.390351 71.684044 -164.549569 -5.696271 4.643935 5.066091 21.308812 -2.900204 -2.751152 0.032542 -0.120295 0.106310 90.869203 66.474073 -9.452922 -45.432829 57.333142 -73.921674 -41.478454 31.102028 -116.935241 8.540046 -10.006948 -9.904212 -13.960563 -0.158350 -16.135668 -0.034043 -0.067602 0.079576 0.102077 0.063412 -0.075121 87.197311 74.878157 110.352784 55.093055 35.207773 163.724306 -12.415075 -28.199898 85.160349 31.708095 4.661821 -22.983385 -7.526729 -4.345988 -46.038774 -0.053408 0.099360 -0.080930 -0.070862 -0.056420 -0.109050 
-0.023221 17.403738 6.733750 85.683047 -21.850110 -36.565100 -88.219748 -47.362076 50.553692 -6.017891 0.997834 -52.532688 -41.471553 61.601120 -46.805051 19.598216 6.207945 1.170741 0.107402 0.016324 -36.526795 33.263865 -6.721553 -101.692187 66.152855 -61.435819 -112.141635 112.175037 -40.425930 -97.973488 -9.272097 -24.917622 -1.818660 -1.456726 0.137975 -42.965081 -92.105964 65.764693 -2.060065 -174.122744 69.961687 -171.940591 -158.161916 71.222097 -166.658148 -5.486747 5.138816 6.732901 23.088397 -1.808870 -5.401049 0.093162 -0.074109 0.044499 87.704087 65.119261 -12.583316 -43.465335 56.027056 -75.524404 -47.725680 35.748664 -119.096436 11.703513 -17.177302 -11.345799 -15.568217 5.944384 -23.694563 -0.083503 -0.081003 0.079425 0.026104 0.060896 -0.073172 79.456819 74.000617 102.779303 55.661190 32.626551 166.591490 -12.062550 -32.196496 82.909301 26.939141 5.222008 -20.975702 -0.065033 -1.496522 -53.430902 -0.087434 0.049451 -0.061904 -0.071899 -0.088367 -0.031738 
-0.069384 17.364023 7.208081 86.105506 -22.344355 -36.498476 -88.817385 -47.901771 50.751372 -8.284596 -0.199586 -51.673273 -39.361575 59.997231 -45.813148 18.990640 8.000364 1.402211 0.247265 0.034592 -39.918114 33.123243 -6.831662 -103.297144 64.249027 -65.170830 -109.689179 111.947221 -44.860849 -108.103193 -8.273937 -24.756792 -4.703907 -1.317797 0.130380 -42.382644 -89.023154 65.424783 -0.433485 -177.707950 69.400587 -174.878651 -158.793184 71.556630 -167.033195 -4.046824 5.131960 7.454207 23.121320 1.475958 -6.443290 0.057191 -0.106184 0.097806 87.447887 63.378315 -12.525310 -42.922010 54.966780 -78.314119 -53.335938 39.959393 -120.948188 13.226856 -23.747771 -14.980496 -16.682892 11.838743 -31.587751 -0.053165 -0.073278 0.071847 0.082944 0.056092 -0.077075 72.040995 72.376494 95.521060 55.874196 30.958191 168.869229 -11.672266 -34.268208 80.861339 20.270701 5.870206 -13.495235 4.406690 6.797083 -60.936496 -0.052832 0.090753 -0.080902 -0.073543 -0.044042 -0.118533 
-0.130970 17.315538 7.695083 86.641057 -23.059264 -36.228923 -90.379072 -47.676323 52.066092 -8.944060 -0.652648 -50.846886 -40.146026 58.304489 -46.667180 14.542799 9.335114 -0.558904 0.425224 0.057761 -43.175957 33.265157 -7.306944 -104.753577 60.558381 -68.194401 -104.846297 112.199393 -48.878724 -119.928412 -7.687251 -23.740121 -7.633942 -1.215703 0.114624 -42.800963 -86.470213 65.611053 1.182035 -176.985410 69.906743 -173.906793 -160.627195 70.967077 -169.152699 -2.560682 6.377107 7.708508 24.049308 5.341728 -7.261962 0.073836 -0.063107 0.046814 85.382466 61.958554 -14.975219 -40.336068 55.391203 -80.362944 -57.397489 44.677240 -122.891581 14.751124 -28.417408 -15.790505 -20.594144 19.893467 -39.318631 -0.067391 -0.080779 0.062914 0.045786 0.080824 -0.062405 65.174811 70.045387 88.974768 55.397919 29.297037 171.605412 -11.094184 -37.251339 77.888008 14.288368 7.118963 -12.057384 4.793561 12.596845 -76.860212 -0.059117 0.060049 -0.062615 -0.071643 -0.102334 -0.044217 
-0.203952 17.262835 8.196896 87.228024 -24.087884 -35.698643 -90.975815 -47.483157 53.101584 -9.453595 -0.565286 -51.019641 -41.420533 56.888792 -46.435221 12.553655 10.620264 -2.578435 0.479160 0.081486 -46.412568 33.594027 -7.499308 -105.457722 56.792570 -70.019583 -100.232777 113.698395 -52.546749 -132.046049 -8.892509 -23.794598 -8.019692 -1.109917 0.104115 -43.126807 -84.669580 65.333868 1.395738 -178.512316 69.592213 -175.238994 -161.699972 71.115738 -169.759606 -1.521478 6.478022 7.817407 23.549846 8.085843 -8.202093 0.082328 -0.101202 0.101379 85.299261 61.164909 -14.603356 -38.596828 56.395774 -82.949056 -61.699477 48.237824 -125.591219 13.326593 -33.480010 -17.865444 -19.268738 26.930821 -44.382175 -0.075828 -0.063400 0.077840 0.075938 0.048222 -0.079579 60.487035 67.734009 85.029395 54.713839 28.554368 173.557396 -9.843122 -39.929581 75.241135 7.766023 9.514607 -10.314139 8.798559 16.560935 -82.959729 -0.073475 0.081658 -0.073121 -0.051278 -0.043193 -0.086239 
-0.279808 17.210337 8.719146 87.807745 -25.001279 -35.170473 -92.029294 -46.726432 54.292211 -8.918733 -0.130631 -51.140002 -44.105065 56.107844 -46.596323 8.072660 11.017346 -5.844041 0.504604 0.096729 -49.995335 33.413631 -7.939177 -105.722527 54.088574 -72.074123 -96.582774 116.294170 -55.064024 -141.787568 -11.075693 -23.434128 -8.020094 -1.071464 0.078244 -43.463630 -83.623459 65.759274 1.482301 -177.224857 69.975024 -174.080848 -161.867116 70.395579 -169.777444 0.092545 5.426929 8.201456 21.623286 11.375939 -7.984365 0.074114 -0.058364 0.048183 84.823561 60.556151 -16.294984 -36.031608 58.843476 -83.187969 -64.978445 50.987006 -129.186609 10.743146 -33.137924 -17.220308 -20.787188 27.722137 -48.241480 -0.055712 -0.080949 0.061723 0.068964 0.081215 -0.071393 57.053763 65.805020 81.960936 54.241966 27.024766 174.924465 -8.083806 -43.978106 72.534475 1.514081 12.179971 -12.361578 10.522764 20.670145 -100.720088 -0.067803 0.077164 -0.067983 -0.102404 -0.074593 -0.069499 
-0.353065 17.156242 9.267815 87.699631 -25.646265 -34.156809 -93.382442 -46.398852 56.410538 -8.373356 0.636108 -51.617902 -46.155612 55.894156 -46.197249 5.407590 11.590804 -7.271412 0.430761 0.130611 -52.655249 34.044642 -7.966400 -105.549194 51.548526 -72.777219 -93.323192 116.960982 -56.400362 -146.899663 -12.517404 -23.061418 -8.541078 -1.016062 0.053952 -43.878373 -81.313658 65.643342 2.511123 -178.451170 70.188111 -175.179943 -162.386487 70.220409 -169.685932 1.038787 4.433542 7.756741 19.367524 11.299442 -7.075947 0.083277 -0.083244 0.082346 85.044149 59.576976 -17.350370 -32.313340 62.133995 -81.639987 -68.481267 52.990267 -133.292145 5.902405 -32.799695 -12.882250 -15.359169 29.579581 -43.559079 -0.100147 -0.079031 0.086076 0.081377 0.040906 -0.064618 54.191239 64.935947 80.205059 53.990642 26.740994 175.958544 -5.579790 -46.941662 69.203559 -5.541494 11.790437 -12.087563 9.692995 20.399754 -111.385880 -0.087970 0.090345 -0.058129 -0.043694 -0.058103 -0.074359 
-0.421779 17.097294 9.846368 87.761900 -25.983461 -33.324954 -95.063631 -46.158134 58.495394 -7.742132 1.663538 -51.622711 -49.157170 55.943688 -46.343527 0.025526 10.593147 -7.837253 0.453379 0.138726 -55.720151 33.207659 -7.982850 -105.801404 52.084540 -75.117030 -93.776151 117.997046 -57.086313 -149.132620 -13.470531 -21.954019 -8.902045 -1.099530 0.045873 -43.487024 -80.588563 65.833379 2.822871 -177.171223 70.554306 -174.699779 -162.933057 70.054059 -170.240163 1.639751 5.347725 7.717523 18.823362 12.693231 -5.929324 0.078402 -0.083913 0.073829 84.932456 58.300156 -18.685383 -28.493426 65.705167 -79.814935 -71.149690 54.856632 -137.143806 0.271064 -30.460475 -10.160006 -8.849058 32.140372 -31.450300 -0.062345 -0.085614 0.077276 0.098374 0.083669 -0.082199 51.651958 64.764516 78.110068 53.909039 25.766385 176.037169 -4.157889 -48.940304 65.775055 -10.010686 12.163817 -11.505597 12.506060 23.514227 -117.690418 -0.076161 0.091057 -0.083418 -0.098929 -0.077463 -0.082054 
